<svg height="480pt" viewBox="0 -136 480 480" width="480pt" xmlns="http://www.w3.org/2000/svg"><path d="m408 168c0 8.835938-7.164062 16-16 16s-16-7.164062-16-16 7.164062-16 16-16 16 7.164062 16 16zm0 0"/><path d="m120 168c0 8.835938-7.164062 16-16 16s-16-7.164062-16-16 7.164062-16 16-16 16 7.164062 16 16zm0 0"/><path d="m472 16h-64c-4.417969 0-8 3.582031-8 8v64.542969c-41.125-26.570313-86.625-45.660157-134.398438-56.382813-2.355468-.480468-4.800781.121094-6.660156 1.640625-1.863281 1.519531-2.941406 3.796875-2.941406 6.199219v56h-152c-.113281 0-.199219.054688-.3125.0625-.949219.023438-1.882812.210938-2.765625.554688l-95.945313 40c-3.003906 1.222656-4.9687495 4.140624-4.976562 7.382812v24c0 4.417969 3.582031 8 8 8h56.800781c3.785157 18.644531 20.175781 32.039062 39.199219 32.039062s35.414062-13.394531 39.199219-32.039062h48.800781v8c0 4.417969 3.582031 8 8 8h128c4.417969 0 8-3.582031 8-8v-8h16.800781c3.785157 18.644531 20.175781 32.039062 39.199219 32.039062s35.414062-13.394531 39.199219-32.039062h24.800781c4.417969 0 8-3.582031 8-8v-64c0-4.417969-3.582031-8-8-8h-8v-32h24c4.417969 0 8-3.582031 8-8v-32c0-4.417969-3.582031-8-8-8zm-56 16h16v64h-16zm-144 18.105469c38.707031 9.894531 75.773438 25.355469 110.039062 45.894531h-110.039062zm-207.199219 109.894531h-48.800781v-10.664062l80-33.335938v12.800781c-15.699219 3.234375-27.964844 15.5-31.199219 31.199219zm39.199219 32c-13.253906 0-24-10.746094-24-24s10.746094-24 24-24 24 10.746094 24 24-10.746094 24-24 24zm216-24v8h-112v-32h112zm72 24c-13.253906 0-24-10.746094-24-24s10.746094-24 24-24 24 10.746094 24 24-10.746094 24-24 24zm56-32h-16.800781c-3.785157-18.644531-20.175781-32.039062-39.199219-32.039062s-35.414062 13.394531-39.199219 32.039062h-16.800781v-24c0-4.417969-3.582031-8-8-8h-128c-4.417969 0-8 3.582031-8 8v24h-48.800781c-3.234375-15.699219-15.5-27.964844-31.199219-31.199219v-16.800781h336zm16-112h-16v-16h16zm0 0"/><path d="m256 0h48v16h-48zm0 0"/><path d="m104 64h48v16h-48zm0 0"/><path d="m168 64h16v16h-16zm0 0"/></svg>